# Blender 5.0.1
# www.blender.org
mtllib gem_type_3.mtl
o gem_type_3
v 0.000000 -0.250000 -0.422940
v -0.023893 -0.230777 -0.422802
v 0.023893 -0.230777 -0.422802
v -0.015195 -0.244370 -0.430713
v 0.000000 -0.241452 -0.433011
v 0.000000 -0.228739 -0.425067
v 0.015195 -0.244370 -0.430713
v 0.299064 -0.250000 -0.299064
v 0.282071 -0.230777 -0.315862
v 0.315862 -0.230777 -0.282071
v 0.293816 -0.244370 -0.315305
v 0.306185 -0.241452 -0.306185
v 0.300568 -0.228739 -0.300568
v 0.315305 -0.244370 -0.293816
v 0.422940 -0.250000 0.000000
v 0.422802 -0.230777 -0.023893
v 0.422802 -0.230777 0.023893
v 0.430713 -0.244370 -0.015195
v 0.433011 -0.241452 0.000000
v 0.425067 -0.228739 0.000000
v 0.430713 -0.244370 0.015195
v 0.299064 -0.250000 0.299064
v 0.315862 -0.230777 0.282071
v 0.282071 -0.230777 0.315862
v 0.315305 -0.244370 0.293816
v 0.306185 -0.241452 0.306185
v 0.300568 -0.228739 0.300568
v 0.293816 -0.244370 0.315305
v -0.000000 -0.250000 0.422940
v 0.023893 -0.230777 0.422802
v -0.023893 -0.230777 0.422802
v 0.015195 -0.244370 0.430713
v -0.000000 -0.241452 0.433011
v 0.000000 -0.228739 0.425067
v -0.015195 -0.244370 0.430713
v -0.299064 -0.250000 0.299064
v -0.282071 -0.230777 0.315862
v -0.315862 -0.230777 0.282071
v -0.293816 -0.244370 0.315305
v -0.306185 -0.241452 0.306185
v -0.300568 -0.228739 0.300568
v -0.315305 -0.244370 0.293816
v -0.422940 -0.250000 -0.000000
v -0.422802 -0.230777 0.023893
v -0.422802 -0.230777 -0.023893
v -0.430713 -0.244370 0.015195
v -0.433011 -0.241452 -0.000000
v -0.425067 -0.228739 0.000000
v -0.430713 -0.244370 -0.015195
v -0.299064 -0.250000 -0.299064
v -0.315862 -0.230777 -0.282071
v -0.282071 -0.230777 -0.315862
v -0.315305 -0.244370 -0.293816
v -0.306185 -0.241452 -0.306185
v -0.300568 -0.228739 -0.300568
v -0.293816 -0.244370 -0.315305
v -0.023893 0.174911 -0.057683
v -0.057683 0.174911 -0.023893
v -0.057683 0.174911 0.023893
v -0.023893 0.174911 0.057683
v 0.023893 0.174911 0.057683
v 0.057683 0.174911 0.023893
v 0.057683 0.174911 -0.023893
v 0.023893 0.174911 -0.057683
v -0.042390 0.176949 -0.042390
v -0.000000 0.212746 0.000000
v -0.059948 0.176949 0.000000
v -0.042390 0.176949 0.042390
v 0.000000 0.176949 0.059948
v 0.042390 0.176949 0.042390
v 0.059948 0.176949 0.000000
v 0.042390 0.176949 -0.042390
v 0.000000 0.176949 -0.059948
v 0.000000 -0.250000 0.422940
v -0.023731 -0.270549 0.424759
v 0.023731 -0.270549 0.424759
v -0.014975 -0.256019 0.431357
v 0.000000 -0.259091 0.433938
v 0.000000 -0.272503 0.427364
v 0.014975 -0.256019 0.431357
v 0.299064 -0.250000 0.299064
v 0.283569 -0.270549 0.317130
v 0.317130 -0.270549 0.283569
v 0.294426 -0.256019 0.315605
v 0.306841 -0.259091 0.306841
v 0.302192 -0.272503 0.302192
v 0.315605 -0.256019 0.294426
v 0.422940 -0.250000 0.000000
v 0.424759 -0.270549 0.023731
v 0.424759 -0.270549 -0.023731
v 0.431357 -0.256019 0.014975
v 0.433938 -0.259091 0.000000
v 0.427364 -0.272503 0.000000
v 0.431357 -0.256019 -0.014975
v 0.299064 -0.250000 -0.299064
v 0.317130 -0.270549 -0.283569
v 0.283569 -0.270549 -0.317130
v 0.315605 -0.256019 -0.294426
v 0.306841 -0.259091 -0.306841
v 0.302192 -0.272503 -0.302192
v 0.294426 -0.256019 -0.315605
v 0.000000 -0.250000 -0.422940
v 0.023731 -0.270549 -0.424758
v -0.023731 -0.270549 -0.424758
v 0.014975 -0.256019 -0.431357
v -0.000000 -0.259091 -0.433938
v 0.000000 -0.272503 -0.427364
v -0.014975 -0.256019 -0.431357
v -0.299064 -0.250000 -0.299064
v -0.283569 -0.270549 -0.317130
v -0.317130 -0.270549 -0.283569
v -0.294427 -0.256019 -0.315605
v -0.306841 -0.259091 -0.306841
v -0.302192 -0.272503 -0.302192
v -0.315605 -0.256019 -0.294426
v -0.422940 -0.250000 0.000000
v -0.424759 -0.270549 -0.023731
v -0.424759 -0.270549 0.023731
v -0.431357 -0.256019 -0.014975
v -0.433938 -0.259091 0.000000
v -0.427364 -0.272503 0.000000
v -0.431357 -0.256019 0.014975
v -0.299064 -0.250000 0.299064
v -0.317130 -0.270549 0.283569
v -0.283569 -0.270549 0.317130
v -0.315605 -0.256019 0.294427
v -0.306841 -0.259091 0.306841
v -0.302192 -0.272503 0.302192
v -0.294426 -0.256019 0.315605
v -0.023731 -0.760505 0.057292
v -0.057292 -0.760505 0.023731
v -0.057292 -0.760505 -0.023731
v -0.023731 -0.760505 -0.057292
v 0.023731 -0.760505 -0.057292
v 0.057292 -0.760505 -0.023731
v 0.057292 -0.760505 0.023731
v 0.023731 -0.760505 0.057292
v -0.042354 -0.762459 0.042354
v 0.000000 -0.805500 -0.000000
v -0.059898 -0.762459 -0.000000
v -0.042354 -0.762459 -0.042354
v -0.000000 -0.762459 -0.059898
v 0.042354 -0.762459 -0.042354
v 0.059898 -0.762459 -0.000000
v 0.042354 -0.762459 0.042354
v 0.000000 -0.762459 0.059898
vn -0.0000 -0.7624 -0.6471
vn -0.1609 0.4699 -0.8679
vn 0.1609 0.4699 -0.8679
vn 0.4576 -0.7624 -0.4576
vn 0.5000 0.4699 -0.7275
vn 0.7275 0.4699 -0.5000
vn 0.6471 -0.7624 -0.0000
vn 0.8679 0.4699 -0.1609
vn 0.8679 0.4699 0.1609
vn 0.4576 -0.7624 0.4576
vn 0.7275 0.4699 0.5000
vn 0.5000 0.4699 0.7275
vn -0.0000 -0.7624 0.6471
vn 0.1609 0.4699 0.8679
vn -0.1609 0.4699 0.8679
vn -0.4576 -0.7624 0.4576
vn -0.5000 0.4699 0.7275
vn -0.7275 0.4699 0.5000
vn -0.6471 -0.7624 -0.0000
vn -0.8679 0.4699 0.1609
vn -0.8679 0.4699 -0.1609
vn -0.4576 -0.7624 -0.4576
vn -0.7275 0.4699 -0.5000
vn -0.5000 0.4699 -0.7275
vn -0.1983 0.8552 -0.4788
vn -0.4788 0.8552 -0.1983
vn -0.4788 0.8552 0.1983
vn -0.1983 0.8552 0.4788
vn 0.1983 0.8552 0.4788
vn 0.4788 0.8552 0.1983
vn 0.4788 0.8552 -0.1983
vn 0.1983 0.8552 -0.4788
vn -0.0000 0.7708 0.6371
vn -0.1709 -0.3758 0.9108
vn 0.1709 -0.3758 0.9108
vn 0.4505 0.7708 0.4505
vn 0.5232 -0.3758 0.7648
vn 0.7648 -0.3758 0.5232
vn 0.6371 0.7708 -0.0000
vn 0.9108 -0.3758 0.1709
vn 0.9108 -0.3758 -0.1709
vn 0.4505 0.7708 -0.4505
vn 0.7648 -0.3758 -0.5232
vn 0.5232 -0.3758 -0.7648
vn -0.0000 0.7708 -0.6371
vn 0.1709 -0.3758 -0.9108
vn -0.1709 -0.3758 -0.9108
vn -0.4505 0.7708 -0.4505
vn -0.5232 -0.3758 -0.7648
vn -0.7648 -0.3758 -0.5232
vn -0.6371 0.7708 -0.0000
vn -0.9108 -0.3758 -0.1709
vn -0.9108 -0.3758 0.1709
vn -0.4505 0.7708 0.4505
vn -0.7648 -0.3758 0.5232
vn -0.5232 -0.3758 0.7648
vn -0.2247 -0.8094 0.5426
vn -0.5426 -0.8094 0.2247
vn -0.5426 -0.8094 -0.2247
vn -0.2247 -0.8094 -0.5426
vn 0.2247 -0.8094 -0.5426
vn 0.5426 -0.8094 -0.2247
vn 0.5426 -0.8094 0.2247
vn 0.2247 -0.8094 0.5426
vn 0.3673 0.2810 -0.8867
vn 0.1521 -0.9176 -0.3673
vn -0.1265 0.6636 -0.7373
vn 0.1265 0.6636 -0.7373
vn 0.6108 0.6636 -0.4319
vn 0.4319 0.6636 -0.6108
vn 0.8867 0.2810 -0.3673
vn 0.3673 -0.9176 -0.1521
vn 0.7373 0.6636 0.1265
vn 0.7373 0.6636 -0.1265
vn 0.8867 0.2810 0.3673
vn 0.3673 -0.9176 0.1521
vn 0.4319 0.6636 0.6108
vn 0.6108 0.6636 0.4319
vn 0.3673 0.2810 0.8867
vn 0.1521 -0.9176 0.3673
vn -0.1265 0.6636 0.7373
vn 0.1265 0.6636 0.7373
vn -0.3673 0.2810 0.8867
vn -0.1521 -0.9176 0.3673
vn -0.6108 0.6636 0.4319
vn -0.4319 0.6636 0.6108
vn -0.8867 0.2810 0.3673
vn -0.3673 -0.9176 0.1521
vn -0.7373 0.6636 -0.1265
vn -0.7373 0.6636 0.1265
vn -0.8867 0.2810 -0.3673
vn -0.3673 -0.9176 -0.1521
vn -0.4319 0.6636 -0.6108
vn -0.6108 0.6636 -0.4319
vn -0.3673 0.2810 -0.8867
vn -0.1521 -0.9176 -0.3673
vn 0.3760 -0.1857 0.9078
vn 0.1558 0.9134 0.3760
vn -0.1360 -0.5944 0.7926
vn 0.1360 -0.5944 0.7926
vn 0.6566 -0.5944 0.4643
vn 0.4643 -0.5944 0.6566
vn 0.9078 -0.1857 0.3760
vn 0.3760 0.9134 0.1558
vn 0.7926 -0.5944 -0.1360
vn 0.7926 -0.5944 0.1360
vn 0.9078 -0.1857 -0.3760
vn 0.3760 0.9134 -0.1558
vn 0.4643 -0.5944 -0.6566
vn 0.6566 -0.5944 -0.4643
vn 0.3760 -0.1857 -0.9078
vn 0.1558 0.9134 -0.3760
vn -0.1360 -0.5944 -0.7926
vn 0.1360 -0.5944 -0.7926
vn -0.3760 -0.1857 -0.9078
vn -0.1558 0.9134 -0.3760
vn -0.6566 -0.5944 -0.4643
vn -0.4643 -0.5944 -0.6566
vn -0.9078 -0.1857 -0.3760
vn -0.3760 0.9134 -0.1558
vn -0.7926 -0.5944 0.1360
vn -0.7926 -0.5944 -0.1360
vn -0.9078 -0.1857 0.3760
vn -0.3760 0.9134 0.1558
vn -0.4643 -0.5944 0.6566
vn -0.6566 -0.5944 0.4643
vn -0.3760 -0.1857 0.9078
vn -0.1558 0.9134 0.3760
vn -0.0000 -1.0000 -0.0000
vn 0.2943 0.6393 -0.7104
vn -0.2943 0.6393 -0.7104
vn 0.7104 0.6393 -0.2943
vn 0.7104 0.6393 0.2943
vn 0.2943 0.6393 0.7104
vn -0.2943 0.6393 0.7104
vn -0.7104 0.6393 0.2943
vn -0.7104 0.6393 -0.2943
vn -0.0000 1.0000 -0.0000
vn 0.3146 -0.5695 0.7594
vn -0.3146 -0.5695 0.7594
vn 0.7594 -0.5695 0.3146
vn 0.7594 -0.5695 -0.3146
vn 0.3146 -0.5695 -0.7594
vn -0.3146 -0.5695 -0.7594
vn -0.7594 -0.5695 -0.3146
vn -0.7594 -0.5695 0.3146
vt 0.750000 0.475568
vt 0.739446 0.485628
vt 0.746797 0.488673
vt 0.760554 0.485628
vt 0.237257 0.475495
vt 0.250000 0.478411
vt 0.251602 0.486176
vt 0.239446 0.485628
vt 0.262743 0.475495
vt 0.260554 0.485628
vt 0.909501 0.409501
vt 0.909152 0.424077
vt 0.916502 0.421033
vt 0.924077 0.409152
vt 0.400438 0.418460
vt 0.411511 0.411511
vt 0.418134 0.415869
vt 0.409152 0.424077
vt 0.418460 0.400438
vt 0.424077 0.409152
vt 0.975568 0.250000
vt 0.985628 0.260554
vt 0.988673 0.253203
vt 0.985628 0.239446
vt 0.475495 0.262743
vt 0.478411 0.250000
vt 0.486176 0.248398
vt 0.485628 0.260554
vt 0.475495 0.237257
vt 0.485628 0.239446
vt 0.909501 0.090499
vt 0.924077 0.090848
vt 0.921033 0.083498
vt 0.909152 0.075923
vt 0.418460 0.099562
vt 0.411511 0.088489
vt 0.415869 0.081866
vt 0.424077 0.090848
vt 0.400438 0.081541
vt 0.409152 0.075923
vt 0.750000 0.024432
vt 0.760554 0.014372
vt 0.753203 0.011327
vt 0.739446 0.014372
vt 0.262743 0.024505
vt 0.250000 0.021589
vt 0.248398 0.013824
vt 0.260554 0.014372
vt 0.237257 0.024505
vt 0.239446 0.014372
vt 0.590499 0.090499
vt 0.590848 0.075923
vt 0.583498 0.078967
vt 0.575923 0.090848
vt 0.099562 0.081541
vt 0.088489 0.088489
vt 0.081866 0.084131
vt 0.090848 0.075923
vt 0.081541 0.099562
vt 0.075923 0.090848
vt 0.524432 0.250000
vt 0.514372 0.239446
vt 0.511327 0.246797
vt 0.514372 0.260554
vt 0.024505 0.237257
vt 0.021589 0.250000
vt 0.013824 0.251602
vt 0.014372 0.239446
vt 0.024505 0.262743
vt 0.014372 0.260554
vt 0.590499 0.409501
vt 0.575923 0.409152
vt 0.578967 0.416502
vt 0.590848 0.424077
vt 0.081541 0.400438
vt 0.088489 0.411511
vt 0.084131 0.418134
vt 0.075923 0.409152
vt 0.099562 0.418460
vt 0.090848 0.424077
vt 0.237257 0.280764
vt 0.226184 0.273816
vt 0.250000 0.250000
vt 0.250000 0.283681
vt 0.219236 0.262743
vt 0.216319 0.250000
vt 0.219236 0.237257
vt 0.226184 0.226184
vt 0.237257 0.219236
vt 0.250000 0.216319
vt 0.262743 0.219236
vt 0.273816 0.226184
vt 0.280764 0.237257
vt 0.283681 0.250000
vt 0.280764 0.262743
vt 0.273816 0.273816
vt 0.262743 0.280764
vt 0.739667 0.485720
vt 0.746971 0.488746
vt 0.760333 0.485720
vt 0.237343 0.476538
vt 0.250000 0.479893
vt 0.251514 0.486667
vt 0.239667 0.485720
vt 0.262657 0.476538
vt 0.260333 0.485720
vt 0.909373 0.423986
vt 0.916677 0.420960
vt 0.923986 0.409373
vt 0.401237 0.419136
vt 0.412559 0.412559
vt 0.418420 0.416278
vt 0.409373 0.423986
vt 0.419136 0.401237
vt 0.423986 0.409373
vt 0.985720 0.260333
vt 0.988746 0.253029
vt 0.985720 0.239667
vt 0.476538 0.262657
vt 0.479893 0.250000
vt 0.486667 0.248486
vt 0.485720 0.260333
vt 0.476538 0.237343
vt 0.485720 0.239667
vt 0.923985 0.090627
vt 0.920960 0.083323
vt 0.909373 0.076014
vt 0.419136 0.098763
vt 0.412559 0.087441
vt 0.416278 0.081580
vt 0.423986 0.090627
vt 0.401237 0.080864
vt 0.409373 0.076015
vt 0.760333 0.014280
vt 0.753029 0.011254
vt 0.739667 0.014280
vt 0.262657 0.023462
vt 0.250000 0.020107
vt 0.248486 0.013333
vt 0.260333 0.014280
vt 0.237343 0.023462
vt 0.239667 0.014280
vt 0.590627 0.076015
vt 0.583323 0.079040
vt 0.576015 0.090627
vt 0.098763 0.080864
vt 0.087441 0.087441
vt 0.081580 0.083722
vt 0.090627 0.076014
vt 0.080864 0.098763
vt 0.076014 0.090627
vt 0.514280 0.239667
vt 0.511254 0.246971
vt 0.514280 0.260333
vt 0.023462 0.237343
vt 0.020107 0.250000
vt 0.013333 0.251514
vt 0.014280 0.239667
vt 0.023462 0.262657
vt 0.014280 0.260333
vt 0.576015 0.409373
vt 0.579040 0.416677
vt 0.590627 0.423985
vt 0.080864 0.401237
vt 0.087441 0.412559
vt 0.083722 0.418420
vt 0.076014 0.409373
vt 0.098763 0.419136
vt 0.090627 0.423985
vt 0.237343 0.280556
vt 0.226021 0.273979
vt 0.250000 0.250000
vt 0.250000 0.283911
vt 0.219444 0.262657
vt 0.216089 0.250000
vt 0.219444 0.237343
vt 0.226021 0.226021
vt 0.237343 0.219444
vt 0.250000 0.216089
vt 0.262657 0.219444
vt 0.273979 0.226021
vt 0.280556 0.237343
vt 0.283911 0.250000
vt 0.280556 0.262657
vt 0.273979 0.273979
vt 0.262657 0.280556
s 0
usemtl amber_diamond
f 1/1/1 4/2/1 5/3/1 7/4/1
f 2/5/2 6/6/2 5/7/2 4/8/2
f 3/9/3 7/10/3 5/7/3 6/6/3
f 8/11/4 11/12/4 12/13/4 14/14/4
f 9/15/5 13/16/5 12/17/5 11/18/5
f 10/19/6 14/20/6 12/17/6 13/16/6
f 15/21/7 18/22/7 19/23/7 21/24/7
f 16/25/8 20/26/8 19/27/8 18/28/8
f 17/29/9 21/30/9 19/27/9 20/26/9
f 22/31/10 25/32/10 26/33/10 28/34/10
f 23/35/11 27/36/11 26/37/11 25/38/11
f 24/39/12 28/40/12 26/37/12 27/36/12
f 29/41/13 32/42/13 33/43/13 35/44/13
f 30/45/14 34/46/14 33/47/14 32/48/14
f 31/49/15 35/50/15 33/47/15 34/46/15
f 36/51/16 39/52/16 40/53/16 42/54/16
f 37/55/17 41/56/17 40/57/17 39/58/17
f 38/59/18 42/60/18 40/57/18 41/56/18
f 43/61/19 46/62/19 47/63/19 49/64/19
f 44/65/20 48/66/20 47/67/20 46/68/20
f 45/69/21 49/70/21 47/67/21 48/66/21
f 50/71/22 53/72/22 54/73/22 56/74/22
f 51/75/23 55/76/23 54/77/23 53/78/23
f 52/79/24 56/80/24 54/77/24 55/76/24
f 57/81/25 65/82/25 66/83/25 73/84/25
f 58/85/26 67/86/26 66/83/26 65/82/26
f 59/87/27 68/88/27 66/83/27 67/86/27
f 60/89/28 69/90/28 66/83/28 68/88/28
f 61/91/29 70/92/29 66/83/29 69/90/29
f 62/93/30 71/94/30 66/83/30 70/92/30
f 63/95/31 72/96/31 66/83/31 71/94/31
f 64/97/32 73/84/32 66/83/32 72/96/32
f 74/1/33 77/98/33 78/99/33 80/100/33
f 75/101/34 79/102/34 78/103/34 77/104/34
f 76/105/35 80/106/35 78/103/35 79/102/35
f 81/11/36 84/107/36 85/108/36 87/109/36
f 82/110/37 86/111/37 85/112/37 84/113/37
f 83/114/38 87/115/38 85/112/38 86/111/38
f 88/21/39 91/116/39 92/117/39 94/118/39
f 89/119/40 93/120/40 92/121/40 91/122/40
f 90/123/41 94/124/41 92/121/41 93/120/41
f 95/31/42 98/125/42 99/126/42 101/127/42
f 96/128/43 100/129/43 99/130/43 98/131/43
f 97/132/44 101/133/44 99/130/44 100/129/44
f 102/41/45 105/134/45 106/135/45 108/136/45
f 103/137/46 107/138/46 106/139/46 105/140/46
f 104/141/47 108/142/47 106/139/47 107/138/47
f 109/51/48 112/143/48 113/144/48 115/145/48
f 110/146/49 114/147/49 113/148/49 112/149/49
f 111/150/50 115/151/50 113/148/50 114/147/50
f 116/61/51 119/152/51 120/153/51 122/154/51
f 117/155/52 121/156/52 120/157/52 119/158/52
f 118/159/53 122/160/53 120/157/53 121/156/53
f 123/71/54 126/161/54 127/162/54 129/163/54
f 124/164/55 128/165/55 127/166/55 126/167/55
f 125/168/56 129/169/56 127/166/56 128/165/56
f 130/170/57 138/171/57 139/172/57 146/173/57
f 131/174/58 140/175/58 139/172/58 138/171/58
f 132/176/59 141/177/59 139/172/59 140/175/59
f 133/178/60 142/179/60 139/172/60 141/177/60
f 134/180/61 143/181/61 139/172/61 142/179/61
f 135/182/62 144/183/62 139/172/62 143/181/62
f 136/184/63 145/185/63 139/172/63 144/183/63
f 137/186/64 146/173/64 139/172/64 145/185/64
f 3/9/65 9/15/65 11/18/65 7/10/65
f 7/4/66 11/12/66 8/11/66 1/1/66
f 2/5/67 57/81/67 73/84/67 6/6/67
f 6/6/68 73/84/68 64/97/68 3/9/68
f 63/95/69 10/19/69 13/16/69 72/96/69
f 72/96/70 13/16/70 9/15/70 64/97/70
f 10/19/71 16/25/71 18/28/71 14/20/71
f 14/14/72 18/22/72 15/21/72 8/11/72
f 62/93/73 17/29/73 20/26/73 71/94/73
f 71/94/74 20/26/74 16/25/74 63/95/74
f 17/29/75 23/35/75 25/38/75 21/30/75
f 21/24/76 25/32/76 22/31/76 15/21/76
f 61/91/77 24/39/77 27/36/77 70/92/77
f 70/92/78 27/36/78 23/35/78 62/93/78
f 24/39/79 30/45/79 32/48/79 28/40/79
f 28/34/80 32/42/80 29/41/80 22/31/80
f 60/89/81 31/49/81 34/46/81 69/90/81
f 69/90/82 34/46/82 30/45/82 61/91/82
f 31/49/83 37/55/83 39/58/83 35/50/83
f 35/44/84 39/52/84 36/51/84 29/41/84
f 59/87/85 38/59/85 41/56/85 68/88/85
f 68/88/86 41/56/86 37/55/86 60/89/86
f 38/59/87 44/65/87 46/68/87 42/60/87
f 42/54/88 46/62/88 43/61/88 36/51/88
f 58/85/89 45/69/89 48/66/89 67/86/89
f 67/86/90 48/66/90 44/65/90 59/87/90
f 45/69/91 51/75/91 53/78/91 49/70/91
f 49/64/92 53/72/92 50/71/92 43/61/92
f 57/81/93 52/79/93 55/76/93 65/82/93
f 65/82/94 55/76/94 51/75/94 58/85/94
f 52/79/95 2/5/95 4/8/95 56/80/95
f 56/74/96 4/2/96 1/1/96 50/71/96
f 76/105/97 82/110/97 84/113/97 80/106/97
f 80/100/98 84/107/98 81/11/98 74/1/98
f 75/101/99 130/170/99 146/173/99 79/102/99
f 79/102/100 146/173/100 137/186/100 76/105/100
f 136/184/101 83/114/101 86/111/101 145/185/101
f 145/185/102 86/111/102 82/110/102 137/186/102
f 83/114/103 89/119/103 91/122/103 87/115/103
f 87/109/104 91/116/104 88/21/104 81/11/104
f 135/182/105 90/123/105 93/120/105 144/183/105
f 144/183/106 93/120/106 89/119/106 136/184/106
f 90/123/107 96/128/107 98/131/107 94/124/107
f 94/118/108 98/125/108 95/31/108 88/21/108
f 134/180/109 97/132/109 100/129/109 143/181/109
f 143/181/110 100/129/110 96/128/110 135/182/110
f 97/132/111 103/137/111 105/140/111 101/133/111
f 101/127/112 105/134/112 102/41/112 95/31/112
f 133/178/113 104/141/113 107/138/113 142/179/113
f 142/179/114 107/138/114 103/137/114 134/180/114
f 104/141/115 110/146/115 112/149/115 108/142/115
f 108/136/116 112/143/116 109/51/116 102/41/116
f 132/176/117 111/150/117 114/147/117 141/177/117
f 141/177/118 114/147/118 110/146/118 133/178/118
f 111/150/119 117/155/119 119/158/119 115/151/119
f 115/145/120 119/152/120 116/61/120 109/51/120
f 131/174/121 118/159/121 121/156/121 140/175/121
f 140/175/122 121/156/122 117/155/122 132/176/122
f 118/159/123 124/164/123 126/167/123 122/160/123
f 122/154/124 126/161/124 123/71/124 116/61/124
f 130/170/125 125/168/125 128/165/125 138/171/125
f 138/171/126 128/165/126 124/164/126 131/174/126
f 125/168/127 75/101/127 77/104/127 129/169/127
f 129/163/128 77/98/128 74/1/128 123/71/128
f 1/1/129 8/11/129 15/21/129 22/31/129 29/41/129 36/51/129 43/61/129 50/71/129
f 3/9/130 64/97/130 9/15/130
f 52/79/131 57/81/131 2/5/131
f 10/19/132 63/95/132 16/25/132
f 17/29/133 62/93/133 23/35/133
f 24/39/134 61/91/134 30/45/134
f 31/49/135 60/89/135 37/55/135
f 38/59/136 59/87/136 44/65/136
f 45/69/137 58/85/137 51/75/137
f 74/1/138 81/11/138 88/21/138 95/31/138 102/41/138 109/51/138 116/61/138 123/71/138
f 76/105/139 137/186/139 82/110/139
f 125/168/140 130/170/140 75/101/140
f 83/114/141 136/184/141 89/119/141
f 90/123/142 135/182/142 96/128/142
f 97/132/143 134/180/143 103/137/143
f 104/141/144 133/178/144 110/146/144
f 111/150/145 132/176/145 117/155/145
f 118/159/146 131/174/146 124/164/146
