# Blender 5.0.1
# www.blender.org
mtllib gem_type_7.mtl
o gem_type_7
v -0.020653 -0.414358 0.014131
v -0.018856 -0.415348 -0.014076
v 0.007928 -0.416377 -0.022065
v 0.023528 -0.416834 0.001161
v 0.006189 -0.415968 0.023021
v -0.020908 -0.416626 0.000016
v -0.000251 -0.423341 0.000271
v -0.005868 -0.417784 -0.019177
v 0.016643 -0.418544 -0.011105
v 0.015713 -0.418378 0.012847
v -0.007680 -0.416935 0.019608
v 0.293244 -0.215546 0.222975
v 0.309465 -0.192337 0.223593
v 0.301958 -0.175596 0.244335
v 0.281724 -0.191618 0.256621
v 0.274885 -0.215441 0.243996
v 0.303033 -0.205116 0.223367
v 0.297191 -0.201802 0.243179
v 0.307934 -0.184103 0.234880
v 0.292912 -0.183554 0.252313
v 0.278728 -0.204750 0.252382
v 0.284919 -0.217471 0.234241
v -0.140049 -0.208107 0.316695
v -0.114091 -0.208190 0.327825
v -0.109163 -0.184331 0.340862
v -0.134396 -0.170012 0.340202
v -0.152755 -0.184450 0.326319
v -0.127518 -0.209921 0.323292
v -0.132588 -0.194269 0.336467
v -0.111203 -0.197481 0.336417
v -0.121799 -0.177130 0.342155
v -0.145088 -0.177379 0.335414
v -0.147758 -0.197363 0.322384
v -0.332918 -0.210955 -0.014076
v -0.333948 -0.210464 0.014131
v -0.347430 -0.186816 0.022541
v -0.356627 -0.171631 -0.000033
v -0.347890 -0.187466 -0.021676
v -0.334587 -0.212482 0.000016
v -0.349394 -0.196831 0.000111
v -0.342045 -0.199725 0.019213
v -0.353752 -0.179466 0.011793
v -0.354347 -0.179909 -0.011434
v -0.341595 -0.200233 -0.018691
v -0.089595 -0.214918 -0.336218
v -0.115818 -0.215048 -0.326423
v -0.129378 -0.191586 -0.336054
v -0.110998 -0.178050 -0.352839
v -0.086639 -0.191598 -0.352379
v -0.103111 -0.216905 -0.332428
v -0.108107 -0.201571 -0.346794
v -0.123789 -0.204340 -0.332053
v -0.121491 -0.185109 -0.346107
v -0.098926 -0.185096 -0.354887
v -0.087643 -0.204381 -0.345833
v 0.331885 -0.189826 -0.196130
v 0.315552 -0.213048 -0.194658
v 0.299091 -0.213192 -0.217306
v 0.304700 -0.189859 -0.232655
v 0.325574 -0.176409 -0.219393
v 0.325397 -0.202612 -0.195311
v 0.321101 -0.199729 -0.215681
v 0.308237 -0.215058 -0.206634
v 0.302370 -0.202649 -0.226514
v 0.316422 -0.183322 -0.227856
v 0.331053 -0.183305 -0.208500
v 0.105866 0.195096 0.333618
v 0.130386 0.179693 0.334298
v 0.150561 0.195860 0.322042
v 0.139354 0.219740 0.312929
v 0.112142 0.219700 0.320698
v 0.118107 0.187436 0.335581
v 0.130102 0.205777 0.330144
v 0.141545 0.187830 0.330005
v 0.146440 0.208984 0.318767
v 0.126069 0.221477 0.317949
v 0.108541 0.208459 0.328954
v -0.342491 0.175039 0.201383
v -0.333365 0.158129 0.222954
v -0.317050 0.176440 0.235668
v -0.309759 0.201089 0.222983
v -0.330201 0.199077 0.203116
v -0.339652 0.166341 0.212707
v -0.332633 0.185360 0.221538
v -0.326720 0.167137 0.231465
v -0.313867 0.189826 0.231121
v -0.320933 0.201995 0.213836
v -0.338778 0.188294 0.202352
v -0.335302 0.174075 -0.238660
v -0.351679 0.157393 -0.222895
v -0.360416 0.173250 -0.201264
v -0.348253 0.197276 -0.202392
v -0.332434 0.197969 -0.225816
v -0.344793 0.165443 -0.232438
v -0.352176 0.183358 -0.222028
v -0.358136 0.164961 -0.212659
v -0.356766 0.186499 -0.201725
v -0.341282 0.199398 -0.214686
v -0.334746 0.187262 -0.234348
v 0.131430 0.189593 -0.393131
v 0.111604 0.174167 -0.405455
v 0.087818 0.188772 -0.406069
v 0.092307 0.212722 -0.393866
v 0.119092 0.213330 -0.386123
v 0.122803 0.181692 -0.401126
v 0.110099 0.199391 -0.404341
v 0.099603 0.181197 -0.408040
v 0.089185 0.201987 -0.402077
v 0.105978 0.215010 -0.391112
v 0.126932 0.202708 -0.390909
v 0.415847 0.188146 0.022189
v 0.423754 0.172679 0.000669
v 0.417836 0.187647 -0.021752
v 0.406066 0.211379 -0.014007
v 0.403984 0.212045 0.013817
v 0.422024 0.180276 0.012344
v 0.421262 0.197745 0.000131
v 0.423119 0.179975 -0.011281
v 0.413622 0.200760 -0.019161
v 0.406192 0.213718 -0.000056
v 0.411398 0.201281 0.019284
v -0.006603 0.435357 0.020789
v 0.020924 0.434824 0.013817
v 0.018295 0.436898 -0.014007
v -0.008421 0.436137 -0.022006
v -0.026066 0.434102 0.000269
v 0.007482 0.436848 0.018439
v -0.000243 0.443130 -0.000120
v 0.020776 0.437867 -0.000056
v 0.005215 0.438502 -0.019123
v -0.018183 0.436895 -0.011450
v -0.017288 0.436642 0.011316
vn -0.2905 -0.9395 0.1813
vn -0.2807 -0.9459 -0.1629
vn 0.0662 -0.9592 -0.2749
vn 0.2633 -0.9646 0.0169
vn 0.0282 -0.9532 0.3010
vn 0.6592 -0.6754 0.3307
vn 0.8534 -0.3891 0.3468
vn 0.7447 -0.1640 0.6469
vn 0.4894 -0.3249 0.8093
vn 0.4287 -0.6644 0.6122
vn -0.4332 -0.6534 0.6208
vn -0.1250 -0.6379 0.7599
vn -0.0531 -0.2965 0.9536
vn -0.2725 -0.1662 0.9477
vn -0.5597 -0.3988 0.7264
vn -0.7214 -0.6714 -0.1694
vn -0.7302 -0.6647 0.1581
vn -0.8743 -0.4101 0.2597
vn -0.9608 -0.2756 0.0299
vn -0.8577 -0.4482 -0.2519
vn -0.0771 -0.6827 -0.7267
vn -0.4211 -0.6749 -0.6059
vn -0.5611 -0.4436 -0.6988
vn -0.3487 -0.2732 -0.8965
vn -0.0297 -0.4390 -0.8980
vn 0.8647 -0.4303 -0.2590
vn 0.6736 -0.6917 -0.2605
vn 0.4608 -0.6854 -0.5638
vn 0.5143 -0.4257 -0.7445
vn 0.7742 -0.2416 -0.5850
vn 0.0035 0.3021 0.9533
vn 0.2262 0.1556 0.9616
vn 0.4795 0.3226 0.8161
vn 0.3546 0.6238 0.6965
vn 0.0503 0.6044 0.7951
vn -0.9167 0.1997 0.3461
vn -0.8232 0.0515 0.5653
vn -0.5329 0.3138 0.7858
vn -0.4672 0.6217 0.6287
vn -0.7031 0.6117 0.3627
vn -0.6207 0.2200 -0.7525
vn -0.8290 0.0028 -0.5592
vn -0.9402 0.1998 -0.2758
vn -0.7424 0.6076 -0.2823
vn -0.5590 0.6096 -0.5621
vn 0.5438 0.2781 -0.7918
vn 0.2840 0.0592 -0.9570
vn -0.0461 0.2540 -0.9661
vn 0.0166 0.6314 -0.7753
vn 0.3793 0.6349 -0.6730
vn 0.8758 0.3252 0.3565
vn 0.9940 0.0998 0.0448
vn 0.9082 0.3073 -0.2840
vn 0.7371 0.6568 -0.1588
vn 0.7213 0.6545 0.2267
vn -0.0998 0.9422 0.3199
vn 0.2293 0.9488 0.2171
vn 0.2164 0.9656 -0.1445
vn -0.1479 0.9568 -0.2505
vn -0.3296 0.9438 0.0234
vn -0.3473 -0.8330 0.4307
vn -0.0748 -0.8375 0.5413
vn 0.4729 -0.8574 0.2030
vn 0.2656 -0.8523 0.4505
vn 0.1920 -0.3408 0.9203
vn 0.1499 -0.6430 0.7510
vn 0.8920 -0.4498 0.0450
vn 0.7281 -0.6846 0.0348
vn 0.3142 -0.8522 -0.4183
vn 0.4922 -0.8562 -0.1569
vn -0.5390 -0.8282 -0.1536
vn -0.5399 -0.8295 0.1431
vn -0.7544 -0.4402 0.4869
vn -0.6265 -0.6649 0.4067
vn -0.0256 -0.8451 -0.5340
vn -0.3283 -0.8382 -0.4356
vn -0.7258 -0.4744 -0.4982
vn -0.6111 -0.6735 -0.4159
vn 0.2622 -0.4561 -0.8504
vn 0.2174 -0.6796 -0.7007
vn 0.8607 0.0405 0.5076
vn 0.9584 -0.1527 0.2414
vn 0.8966 0.0131 -0.4427
vn 0.9746 -0.1644 -0.1522
vn -0.1046 0.0867 0.9907
vn 0.0816 -0.0357 0.9960
vn 0.6150 0.0867 0.7838
vn 0.3824 -0.0373 0.9233
vn -0.9790 -0.0710 0.1909
vn -0.8977 -0.1934 0.3958
vn -0.4330 0.0434 0.9003
vn -0.6936 -0.1533 0.7038
vn -0.5150 -0.0506 -0.8557
vn -0.6938 -0.2196 -0.6858
vn -0.9871 -0.0885 -0.1331
vn -0.8911 -0.2360 -0.3877
vn 0.6755 0.0084 -0.7373
vn 0.4545 -0.1737 -0.8737
vn -0.1896 -0.0396 -0.9811
vn 0.0966 -0.1940 -0.9762
vn 0.5779 0.6492 0.4946
vn 0.7000 0.3719 0.6097
vn -0.2028 0.6210 0.7571
vn -0.2255 0.3610 0.9049
vn -0.7833 0.6208 0.0321
vn -0.9629 0.2667 0.0417
vn -0.3037 0.6330 -0.7121
vn -0.3596 0.3037 -0.8823
vn 0.6020 0.6520 -0.4609
vn 0.7423 0.3513 -0.5706
vn 0.0108 0.8139 0.5810
vn 0.2898 0.8277 0.4805
vn 0.4972 0.8549 -0.1478
vn 0.4944 0.8501 0.1812
vn -0.5063 0.8364 0.2100
vn -0.3199 0.8214 0.4722
vn -0.3666 0.8404 -0.3993
vn -0.5220 0.8395 -0.1511
vn 0.2765 0.8550 -0.4388
vn -0.0374 0.8521 -0.5221
vn -0.5139 -0.7896 0.3355
vn 0.1121 -0.7999 0.5895
vn 0.5839 -0.8114 0.0263
vn -0.5119 -0.7865 -0.3455
vn 0.1779 -0.8023 -0.5697
vn 0.9614 -0.2706 0.0497
vn 0.7407 0.1657 0.6511
vn 0.2071 -0.1188 0.9711
vn -0.2295 0.1683 0.9587
vn -0.8098 -0.2697 0.5211
vn -0.9989 0.0149 0.0444
vn -0.7793 -0.3222 -0.5375
vn -0.3691 0.0655 -0.9271
vn 0.2815 -0.2855 -0.9161
vn 0.7855 0.1294 -0.6051
vn -0.1773 0.7644 0.6199
vn 0.4631 0.7963 0.3892
vn -0.6016 0.7985 0.0232
vn -0.2443 0.8006 -0.5472
vn 0.4695 0.8072 -0.3578
vt 0.908978 0.013101
vt 0.903352 0.009940
vt 0.907829 0.002187
vt 0.914645 0.009619
vt 0.727358 0.012630
vt 0.721963 0.009197
vt 0.726167 0.001916
vt 0.733012 0.009940
vt 0.545625 0.011998
vt 0.540501 0.008581
vt 0.544475 0.001696
vt 0.550765 0.009197
vt 0.363609 0.011705
vt 0.358577 0.008765
vt 0.362595 0.001804
vt 0.368591 0.008581
vt 0.181699 0.012155
vt 0.176265 0.009619
vt 0.180599 0.002114
vt 0.186879 0.008765
vt 0.282950 0.151413
vt 0.282971 0.157461
vt 0.272554 0.157842
vt 0.272728 0.148208
vt 0.282728 0.163037
vt 0.277756 0.166169
vt 0.272464 0.169385
vt 0.267627 0.166297
vt 0.262792 0.163118
vt 0.262539 0.157461
vt 0.262053 0.151334
vt 0.988742 0.151258
vt 0.994704 0.148288
vt 0.998314 0.156516
vt 0.988814 0.157461
vt 0.101344 0.151334
vt 0.101436 0.157461
vt 0.091659 0.158586
vt 0.096206 0.148288
vt 0.101294 0.163118
vt 0.095715 0.165784
vt 0.090663 0.168796
vt 0.085967 0.166023
vt 0.989159 0.163289
vt 0.995057 0.166023
vt 0.807317 0.151125
vt 0.818182 0.148266
vt 0.818054 0.157736
vt 0.808023 0.157461
vt 0.829214 0.151258
vt 0.828967 0.157461
vt 0.828992 0.163289
vt 0.823199 0.166151
vt 0.818166 0.169471
vt 0.813281 0.165949
vt 0.808007 0.163172
vt 0.626047 0.151295
vt 0.636364 0.148093
vt 0.636306 0.157671
vt 0.626735 0.157461
vt 0.647398 0.151125
vt 0.647585 0.157461
vt 0.647050 0.163172
vt 0.641104 0.165670
vt 0.636273 0.168422
vt 0.631805 0.165357
vt 0.626639 0.162984
vt 0.444854 0.163037
vt 0.444693 0.157461
vt 0.454398 0.157660
vt 0.449951 0.165421
vt 0.444269 0.151413
vt 0.454546 0.148084
vt 0.465204 0.151295
vt 0.465343 0.157461
vt 0.464698 0.162984
vt 0.459113 0.165372
vt 0.454370 0.168167
vt 0.171653 0.309075
vt 0.176584 0.305854
vt 0.181806 0.314454
vt 0.171967 0.314921
vt 0.182043 0.302980
vt 0.186862 0.306186
vt 0.191684 0.309302
vt 0.190909 0.314921
vt 0.191676 0.320733
vt 0.181819 0.323271
vt 0.172069 0.320973
vt 0.898650 0.308874
vt 0.903483 0.305207
vt 0.908312 0.313393
vt 0.899094 0.314921
vt 0.909076 0.301999
vt 0.914520 0.305517
vt 0.009673 0.309075
vt 0.010181 0.314921
vt 0.001819 0.315910
vt 0.005429 0.305517
vt 0.010478 0.320973
vt 0.005017 0.323610
vt 0.899343 0.320296
vt 0.904074 0.323610
vt 0.717478 0.309074
vt 0.721945 0.305693
vt 0.727503 0.314375
vt 0.717538 0.314921
vt 0.727529 0.302567
vt 0.732800 0.305348
vt 0.737682 0.308874
vt 0.737554 0.314921
vt 0.737230 0.320296
vt 0.727273 0.323087
vt 0.717841 0.320416
vt 0.535780 0.309174
vt 0.540303 0.305998
vt 0.545653 0.314419
vt 0.535814 0.314921
vt 0.545669 0.303230
vt 0.550718 0.305805
vt 0.555069 0.309074
vt 0.554818 0.314921
vt 0.554810 0.320416
vt 0.545455 0.323282
vt 0.536138 0.320492
vt 0.353244 0.309302
vt 0.358678 0.306331
vt 0.363760 0.314520
vt 0.352270 0.314921
vt 0.363791 0.303443
vt 0.368714 0.306127
vt 0.372960 0.309174
vt 0.372832 0.314921
vt 0.372994 0.320492
vt 0.363637 0.323781
vt 0.352837 0.320733
vt 0.091274 0.460916
vt 0.096310 0.463028
vt 0.092104 0.470314
vt 0.085943 0.463780
vt 0.272256 0.460304
vt 0.277446 0.464211
vt 0.273660 0.470767
vt 0.267328 0.463028
vt 0.454566 0.461780
vt 0.459084 0.464521
vt 0.455529 0.470679
vt 0.449828 0.464211
vt 0.636326 0.461607
vt 0.641272 0.463880
vt 0.637420 0.470554
vt 0.631826 0.464521
vt 0.818287 0.460691
vt 0.823148 0.463780
vt 0.819274 0.470491
vt 0.813273 0.463880
s 0
usemtl yellow_gem
f 1/1/1 6/2/1 7/3/1 11/4/1
f 2/5/2 8/6/2 7/7/2 6/8/2
f 3/9/3 9/10/3 7/11/3 8/12/3
f 4/13/4 10/14/4 7/15/4 9/16/4
f 5/17/5 11/18/5 7/19/5 10/20/5
f 12/21/6 17/22/6 18/23/6 22/24/6
f 13/25/7 19/26/7 18/23/7 17/22/7
f 14/27/8 20/28/8 18/23/8 19/26/8
f 15/29/9 21/30/9 18/23/9 20/28/9
f 16/31/10 22/24/10 18/23/10 21/30/10
f 23/32/11 28/33/11 29/34/11 33/35/11
f 24/36/12 30/37/12 29/38/12 28/39/12
f 25/40/13 31/41/13 29/38/13 30/37/13
f 26/42/14 32/43/14 29/38/14 31/41/14
f 27/44/15 33/35/15 29/34/15 32/45/15
f 34/46/16 39/47/16 40/48/16 44/49/16
f 35/50/17 41/51/17 40/48/17 39/47/17
f 36/52/18 42/53/18 40/48/18 41/51/18
f 37/54/19 43/55/19 40/48/19 42/53/19
f 38/56/20 44/49/20 40/48/20 43/55/20
f 45/57/21 50/58/21 51/59/21 55/60/21
f 46/61/22 52/62/22 51/59/22 50/58/22
f 47/63/23 53/64/23 51/59/23 52/62/23
f 48/65/24 54/66/24 51/59/24 53/64/24
f 49/67/25 55/60/25 51/59/25 54/66/25
f 56/68/26 61/69/26 62/70/26 66/71/26
f 57/72/27 63/73/27 62/70/27 61/69/27
f 58/74/28 64/75/28 62/70/28 63/73/28
f 59/76/29 65/77/29 62/70/29 64/75/29
f 60/78/30 66/71/30 62/70/30 65/77/30
f 67/79/31 72/80/31 73/81/31 77/82/31
f 68/83/32 74/84/32 73/81/32 72/80/32
f 69/85/33 75/86/33 73/81/33 74/84/33
f 70/87/34 76/88/34 73/81/34 75/86/34
f 71/89/35 77/82/35 73/81/35 76/88/35
f 78/90/36 83/91/36 84/92/36 88/93/36
f 79/94/37 85/95/37 84/92/37 83/91/37
f 80/96/38 86/97/38 84/98/38 85/99/38
f 81/100/39 87/101/39 84/98/39 86/97/39
f 82/102/40 88/93/40 84/92/40 87/103/40
f 89/104/41 94/105/41 95/106/41 99/107/41
f 90/108/42 96/109/42 95/106/42 94/105/42
f 91/110/43 97/111/43 95/106/43 96/109/43
f 92/112/44 98/113/44 95/106/44 97/111/44
f 93/114/45 99/107/45 95/106/45 98/113/45
f 100/115/46 105/116/46 106/117/46 110/118/46
f 101/119/47 107/120/47 106/117/47 105/116/47
f 102/121/48 108/122/48 106/117/48 107/120/48
f 103/123/49 109/124/49 106/117/49 108/122/49
f 104/125/50 110/118/50 106/117/50 109/124/50
f 111/126/51 116/127/51 117/128/51 121/129/51
f 112/130/52 118/131/52 117/128/52 116/127/52
f 113/132/53 119/133/53 117/128/53 118/131/53
f 114/134/54 120/135/54 117/128/54 119/133/54
f 115/136/55 121/129/55 117/128/55 120/135/55
f 122/137/56 127/138/56 128/139/56 132/140/56
f 123/141/57 129/142/57 128/143/57 127/144/57
f 124/145/58 130/146/58 128/147/58 129/148/58
f 125/149/59 131/150/59 128/151/59 130/152/59
f 126/153/60 132/154/60 128/155/60 131/156/60
f 23/32/61 1/1/61 11/4/61 28/33/61
f 28/39/62 11/18/62 5/17/62 24/36/62
f 4/13/63 12/21/63 22/24/63 10/14/63
f 10/20/64 22/24/64 16/31/64 5/17/64
f 15/29/65 25/40/65 30/37/65 21/30/65
f 21/30/66 30/37/66 24/36/66 16/31/66
f 56/68/67 13/25/67 17/22/67 61/69/67
f 61/69/68 17/22/68 12/21/68 57/72/68
f 3/9/69 58/74/69 63/73/69 9/10/69
f 9/16/70 63/73/70 57/72/70 4/13/70
f 34/46/71 2/5/71 6/8/71 39/47/71
f 39/47/72 6/2/72 1/1/72 35/50/72
f 27/44/73 36/52/73 41/51/73 33/35/73
f 33/35/74 41/51/74 35/50/74 23/32/74
f 45/57/75 3/9/75 8/12/75 50/58/75
f 50/58/76 8/6/76 2/5/76 46/61/76
f 38/56/77 47/63/77 52/62/77 44/49/77
f 44/49/78 52/62/78 46/61/78 34/46/78
f 49/67/79 59/76/79 64/75/79 55/60/79
f 55/60/80 64/75/80 58/74/80 45/57/80
f 111/126/81 14/27/81 19/26/81 116/127/81
f 116/127/82 19/26/82 13/25/82 112/130/82
f 60/78/83 113/132/83 118/131/83 66/71/83
f 66/71/84 118/131/84 112/130/84 56/68/84
f 67/79/85 26/42/85 31/41/85 72/80/85
f 72/80/86 31/41/86 25/40/86 68/83/86
f 14/27/87 69/85/87 74/84/87 20/28/87
f 20/28/88 74/84/88 68/83/88 15/29/88
f 78/90/89 37/54/89 42/53/89 83/91/89
f 83/91/90 42/53/90 36/52/90 79/94/90
f 26/42/91 80/96/91 85/99/91 32/43/91
f 32/45/92 85/95/92 79/94/92 27/44/92
f 89/104/93 48/65/93 53/64/93 94/105/93
f 94/105/94 53/64/94 47/63/94 90/108/94
f 37/54/95 91/110/95 96/109/95 43/55/95
f 43/55/96 96/109/96 90/108/96 38/56/96
f 100/115/97 60/78/97 65/77/97 105/116/97
f 105/116/98 65/77/98 59/76/98 101/119/98
f 48/65/99 102/121/99 107/120/99 54/66/99
f 54/66/100 107/120/100 101/119/100 49/67/100
f 115/136/101 70/87/101 75/86/101 121/129/101
f 121/129/102 75/86/102 69/85/102 111/126/102
f 71/89/103 81/100/103 86/97/103 77/82/103
f 77/82/104 86/97/104 80/96/104 67/79/104
f 82/102/105 92/112/105 97/111/105 88/93/105
f 88/93/106 97/111/106 91/110/106 78/90/106
f 93/114/107 103/123/107 108/122/107 99/107/107
f 99/107/108 108/122/108 102/121/108 89/104/108
f 104/125/109 114/134/109 119/133/109 110/118/109
f 110/118/110 119/133/110 113/132/110 100/115/110
f 122/137/111 71/89/111 76/88/111 127/138/111
f 127/144/112 76/88/112 70/87/112 123/141/112
f 114/134/113 124/145/113 129/148/113 120/135/113
f 120/135/114 129/142/114 123/141/114 115/136/114
f 126/153/115 82/102/115 87/103/115 132/154/115
f 132/140/116 87/101/116 81/100/116 122/137/116
f 125/149/117 93/114/117 98/113/117 131/150/117
f 131/156/118 98/113/118 92/112/118 126/153/118
f 124/145/119 104/125/119 109/124/119 130/146/119
f 130/152/120 109/124/120 103/123/120 125/149/120
f 1/1/121 23/32/121 35/50/121
f 5/17/122 16/31/122 24/36/122
f 12/21/123 4/13/123 57/72/123
f 2/5/124 34/46/124 46/61/124
f 3/9/125 45/57/125 58/74/125
f 13/25/126 56/68/126 112/130/126
f 14/27/127 111/126/127 69/85/127
f 25/40/128 15/29/128 68/83/128
f 26/42/129 67/79/129 80/96/129
f 36/52/130 27/44/130 79/94/130
f 37/54/131 78/90/131 91/110/131
f 47/63/132 38/56/132 90/108/132
f 48/65/133 89/104/133 102/121/133
f 59/76/134 49/67/134 101/119/134
f 60/78/135 100/115/135 113/132/135
f 81/100/136 71/89/136 122/137/136
f 70/87/137 115/136/137 123/141/137
f 92/112/138 82/102/138 126/153/138
f 103/123/139 93/114/139 125/149/139
f 114/134/140 104/125/140 124/145/140
