# Blender 5.0.1
# www.blender.org
mtllib gem_type_4.mtl
o gem_type_4
v 0.000000 0.050000 0.500000
v 0.433013 0.050000 -0.250000
v -0.433013 0.050000 -0.250000
v 0.000000 -0.050000 -0.000000
v -0.125000 0.130000 0.133494
v 0.125000 0.130000 0.566506
v -0.098487 0.123910 0.118186
v 0.151513 0.123910 0.551199
v -0.076010 0.106569 0.105209
v 0.173990 0.106569 0.538222
v -0.060992 0.080615 0.096538
v 0.189008 0.080615 0.529551
v -0.055718 0.050000 0.093494
v 0.194282 0.050000 0.526506
v -0.060992 0.019385 0.096538
v 0.189008 0.019385 0.529551
v -0.076010 -0.006569 0.105209
v 0.173990 -0.006569 0.538222
v -0.098487 -0.023910 0.118186
v 0.151513 -0.023910 0.551199
v -0.125000 -0.030000 0.133494
v 0.125000 -0.030000 0.566506
v -0.151513 -0.023910 0.148801
v 0.098487 -0.023910 0.581814
v -0.173990 -0.006569 0.161778
v 0.076010 -0.006569 0.594791
v -0.189008 0.019385 0.170449
v 0.060992 0.019385 0.603462
v -0.194282 0.050000 0.173494
v 0.055718 0.050000 0.606506
v -0.189008 0.080615 0.170449
v 0.060992 0.080615 0.603462
v -0.173990 0.106569 0.161778
v 0.076010 0.106569 0.594791
v -0.151513 0.123910 0.148801
v 0.098487 0.123910 0.581814
v 0.000000 0.070000 0.090000
v 0.000000 0.090000 0.090000
v 0.022961 0.070000 0.094567
v 0.022961 0.090000 0.094567
v 0.042426 0.070000 0.107574
v 0.042426 0.090000 0.107574
v 0.055433 0.070000 0.127039
v 0.055433 0.090000 0.127039
v 0.060000 0.070000 0.150000
v 0.060000 0.090000 0.150000
v 0.055433 0.070000 0.172961
v 0.055433 0.090000 0.172961
v 0.042426 0.070000 0.192426
v 0.042426 0.090000 0.192426
v 0.022961 0.070000 0.205433
v 0.022961 0.090000 0.205433
v 0.000000 0.070000 0.210000
v 0.000000 0.090000 0.210000
v -0.022961 0.070000 0.205433
v -0.022961 0.090000 0.205433
v -0.042426 0.070000 0.192426
v -0.042426 0.090000 0.192426
v -0.055433 0.070000 0.172961
v -0.055433 0.090000 0.172961
v -0.060000 0.070000 0.150000
v -0.060000 0.090000 0.150000
v -0.055433 0.070000 0.127039
v -0.055433 0.090000 0.127039
v -0.042426 0.070000 0.107574
v -0.042426 0.090000 0.107574
v -0.022961 0.070000 0.094567
v -0.022961 0.090000 0.094567
v 0.120000 0.070000 0.190000
v 0.120000 0.090000 0.190000
v 0.142961 0.070000 0.194567
v 0.142961 0.090000 0.194567
v 0.162426 0.070000 0.207574
v 0.162426 0.090000 0.207574
v 0.175433 0.070000 0.227039
v 0.175433 0.090000 0.227039
v 0.180000 0.070000 0.250000
v 0.180000 0.090000 0.250000
v 0.175433 0.070000 0.272961
v 0.175433 0.090000 0.272961
v 0.162426 0.070000 0.292426
v 0.162426 0.090000 0.292426
v 0.142961 0.070000 0.305433
v 0.142961 0.090000 0.305433
v 0.120000 0.070000 0.310000
v 0.120000 0.090000 0.310000
v 0.097039 0.070000 0.305433
v 0.097039 0.090000 0.305433
v 0.077574 0.070000 0.292426
v 0.077574 0.090000 0.292426
v 0.064567 0.070000 0.272961
v 0.064567 0.090000 0.272961
v 0.060000 0.070000 0.250000
v 0.060000 0.090000 0.250000
v 0.064567 0.070000 0.227039
v 0.064567 0.090000 0.227039
v 0.077574 0.070000 0.207574
v 0.077574 0.090000 0.207574
v 0.097039 0.070000 0.194567
v 0.097039 0.090000 0.194567
v -0.100000 0.070000 0.160000
v -0.100000 0.090000 0.160000
v -0.077039 0.070000 0.164567
v -0.077039 0.090000 0.164567
v -0.057574 0.070000 0.177574
v -0.057574 0.090000 0.177574
v -0.044567 0.070000 0.197039
v -0.044567 0.090000 0.197039
v -0.040000 0.070000 0.220000
v -0.040000 0.090000 0.220000
v -0.044567 0.070000 0.242961
v -0.044567 0.090000 0.242961
v -0.057574 0.070000 0.262426
v -0.057574 0.090000 0.262426
v -0.077039 0.070000 0.275433
v -0.077039 0.090000 0.275433
v -0.100000 0.070000 0.280000
v -0.100000 0.090000 0.280000
v -0.122961 0.070000 0.275433
v -0.122961 0.090000 0.275433
v -0.142426 0.070000 0.262426
v -0.142426 0.090000 0.262426
v -0.155433 0.070000 0.242961
v -0.155433 0.090000 0.242961
v -0.160000 0.070000 0.220000
v -0.160000 0.090000 0.220000
v -0.155433 0.070000 0.197039
v -0.155433 0.090000 0.197039
v -0.142426 0.070000 0.177574
v -0.142426 0.090000 0.177574
v -0.122961 0.070000 0.164567
v -0.122961 0.090000 0.164567
v 0.050000 0.070000 0.020000
v 0.050000 0.090000 0.020000
v 0.072961 0.070000 0.024567
v 0.072961 0.090000 0.024567
v 0.092426 0.070000 0.037574
v 0.092426 0.090000 0.037574
v 0.105433 0.070000 0.057039
v 0.105433 0.090000 0.057039
v 0.110000 0.070000 0.080000
v 0.110000 0.090000 0.080000
v 0.105433 0.070000 0.102961
v 0.105433 0.090000 0.102961
v 0.092426 0.070000 0.122426
v 0.092426 0.090000 0.122426
v 0.072961 0.070000 0.135433
v 0.072961 0.090000 0.135433
v 0.050000 0.070000 0.140000
v 0.050000 0.090000 0.140000
v 0.027039 0.070000 0.135433
v 0.027039 0.090000 0.135433
v 0.007574 0.070000 0.122426
v 0.007574 0.090000 0.122426
v -0.005433 0.070000 0.102961
v -0.005433 0.090000 0.102961
v -0.010000 0.070000 0.080000
v -0.010000 0.090000 0.080000
v -0.005433 0.070000 0.057039
v -0.005433 0.090000 0.057039
v 0.007574 0.070000 0.037574
v 0.007574 0.090000 0.037574
v 0.027039 0.070000 0.024567
v 0.027039 0.090000 0.024567
vn -0.0000 0.0681 0.9977
vn 0.8640 0.0681 -0.4988
vn -0.8640 0.0681 -0.4988
vn -0.0000 -1.0000 -0.0000
vn -0.3329 0.7462 -0.5765
vn 0.3329 0.7462 0.5765
vn -0.0856 0.6894 -0.7193
vn 0.5802 0.6894 0.4338
vn 0.1241 0.5276 -0.8404
vn 0.7898 0.5276 0.3127
vn 0.2642 0.2856 -0.9212
vn 0.9299 0.2856 0.2318
vn 0.3134 -0.0000 -0.9496
vn 0.9791 -0.0000 0.2034
vn 0.2642 -0.2856 -0.9212
vn 0.9299 -0.2856 0.2318
vn 0.1241 -0.5276 -0.8404
vn 0.7898 -0.5276 0.3127
vn -0.0856 -0.6894 -0.7193
vn 0.5802 -0.6894 0.4338
vn -0.3329 -0.7462 -0.5765
vn 0.3329 -0.7462 0.5765
vn -0.5802 -0.6894 -0.4338
vn 0.0856 -0.6894 0.7193
vn -0.7898 -0.5276 -0.3127
vn -0.1241 -0.5276 0.8404
vn -0.9299 -0.2856 -0.2318
vn -0.2642 -0.2856 0.9212
vn -0.9791 -0.0000 -0.2034
vn -0.3134 -0.0000 0.9496
vn -0.9299 0.2856 -0.2318
vn -0.2642 0.2856 0.9212
vn -0.7898 0.5276 -0.3127
vn -0.1241 0.5276 0.8404
vn -0.5802 0.6894 -0.4338
vn 0.0856 0.6894 0.7193
vn -0.0000 -0.6657 -0.7462
vn -0.0000 0.6657 -0.7462
vn 0.2856 -0.6657 -0.6894
vn 0.2856 0.6657 -0.6894
vn 0.5276 -0.6657 -0.5276
vn 0.5276 0.6657 -0.5276
vn 0.6894 -0.6657 -0.2856
vn 0.6894 0.6657 -0.2856
vn 0.7462 -0.6657 -0.0000
vn 0.7462 0.6657 -0.0000
vn 0.6894 -0.6657 0.2856
vn 0.6894 0.6657 0.2856
vn 0.5276 -0.6657 0.5276
vn 0.5276 0.6657 0.5276
vn 0.2856 -0.6657 0.6894
vn 0.2856 0.6657 0.6894
vn -0.0000 -0.6657 0.7462
vn -0.0000 0.6657 0.7462
vn -0.2856 -0.6657 0.6894
vn -0.2856 0.6657 0.6894
vn -0.5276 -0.6657 0.5276
vn -0.5276 0.6657 0.5276
vn -0.6894 -0.6657 0.2856
vn -0.6894 0.6657 0.2856
vn -0.7462 -0.6657 -0.0000
vn -0.7462 0.6657 -0.0000
vn -0.6894 -0.6657 -0.2856
vn -0.6894 0.6657 -0.2856
vn -0.5276 -0.6657 -0.5276
vn -0.5276 0.6657 -0.5276
vn -0.2856 -0.6657 -0.6894
vn -0.2856 0.6657 -0.6894
vt 0.250000 0.490000
vt 0.250000 0.250000
vt 0.457846 0.130000
vt 0.750000 0.490000
vt 0.957846 0.130000
vt 0.542154 0.130000
vt 0.042154 0.130000
vt 1.000000 0.500000
vt 1.000000 1.000000
vt 0.937500 1.000000
vt 0.937500 0.500000
vt 0.875000 1.000000
vt 0.875000 0.500000
vt 0.812500 1.000000
vt 0.812500 0.500000
vt 0.750000 1.000000
vt 0.750000 0.500000
vt 0.687500 1.000000
vt 0.687500 0.500000
vt 0.625000 1.000000
vt 0.625000 0.500000
vt 0.562500 1.000000
vt 0.562500 0.500000
vt 0.500000 1.000000
vt 0.500000 0.500000
vt 0.437500 1.000000
vt 0.437500 0.500000
vt 0.375000 1.000000
vt 0.375000 0.500000
vt 0.312500 1.000000
vt 0.312500 0.500000
vt 0.250000 1.000000
vt 0.250000 0.500000
vt 0.187500 1.000000
vt 0.187500 0.500000
vt 0.125000 1.000000
vt 0.125000 0.500000
vt 0.341844 0.471731
vt 0.158156 0.471731
vt 0.080294 0.419706
vt 0.028269 0.341844
vt 0.010000 0.250000
vt 0.028269 0.158156
vt 0.080294 0.080294
vt 0.158156 0.028269
vt 0.250000 0.010000
vt 0.341844 0.028269
vt 0.419706 0.080294
vt 0.471731 0.158156
vt 0.490000 0.250000
vt 0.471731 0.341844
vt 0.419706 0.419706
vt 0.062500 1.000000
vt 0.062500 0.500000
vt 0.000000 1.000000
vt 0.000000 0.500000
vt 0.841844 0.471731
vt 0.919706 0.419706
vt 0.971731 0.341844
vt 0.990000 0.250000
vt 0.971731 0.158156
vt 0.919706 0.080294
vt 0.841844 0.028269
vt 0.750000 0.010000
vt 0.658156 0.028269
vt 0.580294 0.080294
vt 0.528269 0.158156
vt 0.510000 0.250000
vt 0.528269 0.341844
vt 0.580294 0.419706
vt 0.658156 0.471731
vt 0.080294 0.419706
vt 0.028269 0.341844
vt 0.028269 0.158156
vt 0.080294 0.080294
vt 0.158156 0.028269
vt 0.341844 0.028269
vt 0.419706 0.080294
vt 0.919706 0.080294
vt 0.841844 0.028269
vt 0.658156 0.028269
vt 0.580294 0.080294
s 1
usemtl pizza_mat
f 1/1/1 4/2/4 2/3/2
f 1/4/1 2/5/2 3/6/3
f 2/3/2 4/2/4 3/7/3
f 3/7/3 4/2/4 1/1/1
f 5/8/5 6/9/6 8/10/8 7/11/7
f 7/11/7 8/10/8 10/12/10 9/13/9
f 9/13/9 10/12/10 12/14/12 11/15/11
f 11/15/11 12/14/12 14/16/14 13/17/13
f 13/17/13 14/16/14 16/18/16 15/19/15
f 15/19/15 16/18/16 18/20/18 17/21/17
f 17/21/17 18/20/18 20/22/20 19/23/19
f 19/23/19 20/22/20 22/24/22 21/25/21
f 21/25/21 22/24/22 24/26/24 23/27/23
f 23/27/23 24/26/24 26/28/26 25/29/25
f 25/29/25 26/28/26 28/30/28 27/31/27
f 27/31/27 28/30/28 30/32/30 29/33/29
f 29/33/29 30/32/30 32/34/32 31/35/31
f 31/35/31 32/34/32 34/36/34 33/37/33
f 8/38/8 6/1/6 36/39/36 34/40/34 32/41/32 30/42/30 28/43/28 26/44/26 24/45/24 22/46/22 20/47/20 18/48/18 16/49/16 14/50/14 12/51/12 10/52/10
f 33/37/33 34/36/34 36/53/36 35/54/35
f 35/54/35 36/53/36 6/55/6 5/56/5
f 5/4/5 7/57/7 9/58/9 11/59/11 13/60/13 15/61/15 17/62/17 19/63/19 21/64/21 23/65/23 25/66/25 27/67/27 29/68/29 31/69/31 33/70/33 35/71/35
f 37/8/37 38/9/38 40/10/40 39/11/39
f 39/11/39 40/10/40 42/12/42 41/13/41
f 41/13/41 42/12/42 44/14/44 43/15/43
f 43/15/43 44/14/44 46/16/46 45/17/45
f 45/17/45 46/16/46 48/18/48 47/19/47
f 47/19/47 48/18/48 50/20/50 49/21/49
f 49/21/49 50/20/50 52/22/52 51/23/51
f 51/23/51 52/22/52 54/24/54 53/25/53
f 53/25/53 54/24/54 56/26/56 55/27/55
f 55/27/55 56/26/56 58/28/58 57/29/57
f 57/29/57 58/28/58 60/30/60 59/31/59
f 59/31/59 60/30/60 62/32/62 61/33/61
f 61/33/61 62/32/62 64/34/64 63/35/63
f 63/35/63 64/34/64 66/36/66 65/37/65
f 40/38/40 38/1/38 68/39/68 66/72/66 64/73/64 62/42/62 60/74/60 58/75/58 56/76/56 54/46/54 52/77/52 50/78/50 48/49/48 46/50/46 44/51/44 42/52/42
f 65/37/65 66/36/66 68/53/68 67/54/67
f 67/54/67 68/53/68 38/55/38 37/56/37
f 37/4/37 39/57/39 41/58/41 43/59/43 45/60/45 47/61/47 49/79/49 51/80/51 53/64/53 55/81/55 57/82/57 59/67/59 61/68/61 63/69/63 65/70/65 67/71/67
f 69/8/37 70/9/38 72/10/40 71/11/39
f 71/11/39 72/10/40 74/12/42 73/13/41
f 73/13/41 74/12/42 76/14/44 75/15/43
f 75/15/43 76/14/44 78/16/46 77/17/45
f 77/17/45 78/16/46 80/18/48 79/19/47
f 79/19/47 80/18/48 82/20/50 81/21/49
f 81/21/49 82/20/50 84/22/52 83/23/51
f 83/23/51 84/22/52 86/24/54 85/25/53
f 85/25/53 86/24/54 88/26/56 87/27/55
f 87/27/55 88/26/56 90/28/58 89/29/57
f 89/29/57 90/28/58 92/30/60 91/31/59
f 91/31/59 92/30/60 94/32/62 93/33/61
f 93/33/61 94/32/62 96/34/64 95/35/63
f 95/35/63 96/34/64 98/36/66 97/37/65
f 72/38/40 70/1/38 100/39/68 98/72/66 96/73/64 94/42/62 92/74/60 90/75/58 88/76/56 86/46/54 84/77/52 82/78/50 80/49/48 78/50/46 76/51/44 74/52/42
f 97/37/65 98/36/66 100/53/68 99/54/67
f 99/54/67 100/53/68 70/55/38 69/56/37
f 69/4/37 71/57/39 73/58/41 75/59/43 77/60/45 79/61/47 81/79/49 83/80/51 85/64/53 87/81/55 89/82/57 91/67/59 93/68/61 95/69/63 97/70/65 99/71/67
f 101/8/37 102/9/38 104/10/40 103/11/39
f 103/11/39 104/10/40 106/12/42 105/13/41
f 105/13/41 106/12/42 108/14/44 107/15/43
f 107/15/43 108/14/44 110/16/46 109/17/45
f 109/17/45 110/16/46 112/18/48 111/19/47
f 111/19/47 112/18/48 114/20/50 113/21/49
f 113/21/49 114/20/50 116/22/52 115/23/51
f 115/23/51 116/22/52 118/24/54 117/25/53
f 117/25/53 118/24/54 120/26/56 119/27/55
f 119/27/55 120/26/56 122/28/58 121/29/57
f 121/29/57 122/28/58 124/30/60 123/31/59
f 123/31/59 124/30/60 126/32/62 125/33/61
f 125/33/61 126/32/62 128/34/64 127/35/63
f 127/35/63 128/34/64 130/36/66 129/37/65
f 104/38/40 102/1/38 132/39/68 130/72/66 128/73/64 126/42/62 124/74/60 122/75/58 120/76/56 118/46/54 116/77/52 114/78/50 112/49/48 110/50/46 108/51/44 106/52/42
f 129/37/65 130/36/66 132/53/68 131/54/67
f 131/54/67 132/53/68 102/55/38 101/56/37
f 101/4/37 103/57/39 105/58/41 107/59/43 109/60/45 111/61/47 113/79/49 115/80/51 117/64/53 119/81/55 121/82/57 123/67/59 125/68/61 127/69/63 129/70/65 131/71/67
f 133/8/37 134/9/38 136/10/40 135/11/39
f 135/11/39 136/10/40 138/12/42 137/13/41
f 137/13/41 138/12/42 140/14/44 139/15/43
f 139/15/43 140/14/44 142/16/46 141/17/45
f 141/17/45 142/16/46 144/18/48 143/19/47
f 143/19/47 144/18/48 146/20/50 145/21/49
f 145/21/49 146/20/50 148/22/52 147/23/51
f 147/23/51 148/22/52 150/24/54 149/25/53
f 149/25/53 150/24/54 152/26/56 151/27/55
f 151/27/55 152/26/56 154/28/58 153/29/57
f 153/29/57 154/28/58 156/30/60 155/31/59
f 155/31/59 156/30/60 158/32/62 157/33/61
f 157/33/61 158/32/62 160/34/64 159/35/63
f 159/35/63 160/34/64 162/36/66 161/37/65
f 136/38/40 134/1/38 164/39/68 162/72/66 160/73/64 158/42/62 156/74/60 154/75/58 152/76/56 150/46/54 148/77/52 146/78/50 144/49/48 142/50/46 140/51/44 138/52/42
f 161/37/65 162/36/66 164/53/68 163/54/67
f 163/54/67 164/53/68 134/55/38 133/56/37
f 133/4/37 135/57/39 137/58/41 139/59/43 141/60/45 143/61/47 145/79/49 147/80/51 149/64/53 151/81/55 153/82/57 155/67/59 157/68/61 159/69/63 161/70/65 163/71/67
