# Blender 5.0.1
# www.blender.org
mtllib gem_type_3.mtl
o gem_type_3
v 0.000000 -0.125000 -0.400000
v 0.000000 0.125000 -0.400000
v 0.103528 -0.125000 -0.386370
v 0.103528 0.125000 -0.386370
v 0.200000 -0.125000 -0.346410
v 0.200000 0.125000 -0.346410
v 0.282843 -0.125000 -0.282843
v 0.282843 0.125000 -0.282843
v 0.346410 -0.125000 -0.200000
v 0.346410 0.125000 -0.200000
v 0.386370 -0.125000 -0.103528
v 0.386370 0.125000 -0.103528
v 0.400000 -0.125000 0.000000
v 0.400000 0.125000 0.000000
v 0.386370 -0.125000 0.103528
v 0.386370 0.125000 0.103528
v 0.346410 -0.125000 0.200000
v 0.346410 0.125000 0.200000
v 0.282843 -0.125000 0.282843
v 0.282843 0.125000 0.282843
v 0.200000 -0.125000 0.346410
v 0.200000 0.125000 0.346410
v 0.103528 -0.125000 0.386370
v 0.103528 0.125000 0.386370
v 0.000000 -0.125000 0.400000
v 0.000000 0.125000 0.400000
v -0.103528 -0.125000 0.386370
v -0.103528 0.125000 0.386370
v -0.200000 -0.125000 0.346410
v -0.200000 0.125000 0.346410
v -0.282843 -0.125000 0.282843
v -0.282843 0.125000 0.282843
v -0.346410 -0.125000 0.200000
v -0.346410 0.125000 0.200000
v -0.386370 -0.125000 0.103528
v -0.386370 0.125000 0.103528
v -0.400000 -0.125000 0.000000
v -0.400000 0.125000 0.000000
v -0.386370 -0.125000 -0.103528
v -0.386370 0.125000 -0.103528
v -0.346410 -0.125000 -0.200000
v -0.346410 0.125000 -0.200000
v -0.282843 -0.125000 -0.282843
v -0.282843 0.125000 -0.282843
v -0.200000 -0.125000 -0.346410
v -0.200000 0.125000 -0.346410
v -0.103528 -0.125000 -0.386370
v -0.103528 0.125000 -0.386370
v 0.000000 0.060000 -0.320000
v 0.000000 0.140000 -0.320000
v 0.062429 0.060000 -0.313851
v 0.062429 0.140000 -0.313851
v 0.122459 0.060000 -0.295641
v 0.122459 0.140000 -0.295641
v 0.177782 0.060000 -0.266070
v 0.177782 0.140000 -0.266070
v 0.226274 0.060000 -0.226274
v 0.226274 0.140000 -0.226274
v 0.266070 0.060000 -0.177782
v 0.266070 0.140000 -0.177782
v 0.295641 0.060000 -0.122459
v 0.295641 0.140000 -0.122459
v 0.313851 0.060000 -0.062429
v 0.313851 0.140000 -0.062429
v 0.320000 0.060000 0.000000
v 0.320000 0.140000 0.000000
v 0.313851 0.060000 0.062429
v 0.313851 0.140000 0.062429
v 0.295641 0.060000 0.122459
v 0.295641 0.140000 0.122459
v 0.266070 0.060000 0.177782
v 0.266070 0.140000 0.177782
v 0.226274 0.060000 0.226274
v 0.226274 0.140000 0.226274
v 0.177782 0.060000 0.266070
v 0.177782 0.140000 0.266070
v 0.122459 0.060000 0.295641
v 0.122459 0.140000 0.295641
v 0.062429 0.060000 0.313851
v 0.062429 0.140000 0.313851
v 0.000000 0.060000 0.320000
v 0.000000 0.140000 0.320000
v -0.062429 0.060000 0.313851
v -0.062429 0.140000 0.313851
v -0.122459 0.060000 0.295641
v -0.122459 0.140000 0.295641
v -0.177782 0.060000 0.266070
v -0.177782 0.140000 0.266070
v -0.226274 0.060000 0.226274
v -0.226274 0.140000 0.226274
v -0.266070 0.060000 0.177782
v -0.266070 0.140000 0.177782
v -0.295641 0.060000 0.122459
v -0.295641 0.140000 0.122459
v -0.313851 0.060000 0.062429
v -0.313851 0.140000 0.062429
v -0.320000 0.060000 0.000000
v -0.320000 0.140000 0.000000
v -0.313851 0.060000 -0.062429
v -0.313851 0.140000 -0.062429
v -0.295641 0.060000 -0.122459
v -0.295641 0.140000 -0.122459
v -0.266070 0.060000 -0.177782
v -0.266070 0.140000 -0.177782
v -0.226274 0.060000 -0.226274
v -0.226274 0.140000 -0.226274
v -0.177782 0.060000 -0.266070
v -0.177782 0.140000 -0.266070
v -0.122459 0.060000 -0.295641
v -0.122459 0.140000 -0.295641
v -0.062429 0.060000 -0.313851
v -0.062429 0.140000 -0.313851
vn -0.0000 -0.6789 -0.7342
vn -0.0000 0.6789 -0.7342
vn 0.1900 -0.6789 -0.7092
vn 0.1900 0.6789 -0.7092
vn 0.3671 -0.6789 -0.6359
vn 0.3671 0.6789 -0.6359
vn 0.5192 -0.6789 -0.5192
vn 0.5192 0.6789 -0.5192
vn 0.6359 -0.6789 -0.3671
vn 0.6359 0.6789 -0.3671
vn 0.7092 -0.6789 -0.1900
vn 0.7092 0.6789 -0.1900
vn 0.7342 -0.6789 -0.0000
vn 0.7342 0.6789 -0.0000
vn 0.7092 -0.6789 0.1900
vn 0.7092 0.6789 0.1900
vn 0.6359 -0.6789 0.3671
vn 0.6359 0.6789 0.3671
vn 0.5192 -0.6789 0.5192
vn 0.5192 0.6789 0.5192
vn 0.3671 -0.6789 0.6359
vn 0.3671 0.6789 0.6359
vn 0.1900 -0.6789 0.7092
vn 0.1900 0.6789 0.7092
vn -0.0000 -0.6789 0.7342
vn -0.0000 0.6789 0.7342
vn -0.1900 -0.6789 0.7092
vn -0.1900 0.6789 0.7092
vn -0.3671 -0.6789 0.6359
vn -0.3671 0.6789 0.6359
vn -0.5192 -0.6789 0.5192
vn -0.5192 0.6789 0.5192
vn -0.6359 -0.6789 0.3671
vn -0.6359 0.6789 0.3671
vn -0.7092 -0.6789 0.1900
vn -0.7092 0.6789 0.1900
vn -0.7342 -0.6789 -0.0000
vn -0.7342 0.6789 -0.0000
vn -0.7092 -0.6789 -0.1900
vn -0.7092 0.6789 -0.1900
vn -0.6359 -0.6789 -0.3671
vn -0.6359 0.6789 -0.3671
vn -0.5192 -0.6789 -0.5192
vn -0.5192 0.6789 -0.5192
vn -0.3671 -0.6789 -0.6359
vn -0.3671 0.6789 -0.6359
vn -0.1900 -0.6789 -0.7092
vn -0.1900 0.6789 -0.7092
vn -0.0000 -0.6857 -0.7279
vn -0.0000 0.6857 -0.7279
vn 0.1420 -0.6857 -0.7139
vn 0.1420 0.6857 -0.7139
vn 0.2785 -0.6857 -0.6725
vn 0.2785 0.6857 -0.6725
vn 0.4044 -0.6857 -0.6052
vn 0.4044 0.6857 -0.6052
vn 0.5147 -0.6857 -0.5147
vn 0.5147 0.6857 -0.5147
vn 0.6052 -0.6857 -0.4044
vn 0.6052 0.6857 -0.4044
vn 0.6725 -0.6857 -0.2785
vn 0.6725 0.6857 -0.2785
vn 0.7139 -0.6857 -0.1420
vn 0.7139 0.6857 -0.1420
vn 0.7279 -0.6857 -0.0000
vn 0.7279 0.6857 -0.0000
vn 0.7139 -0.6857 0.1420
vn 0.7139 0.6857 0.1420
vn 0.6725 -0.6857 0.2785
vn 0.6725 0.6857 0.2785
vn 0.6052 -0.6857 0.4044
vn 0.6052 0.6857 0.4044
vn 0.5147 -0.6857 0.5147
vn 0.5147 0.6857 0.5147
vn 0.4044 -0.6857 0.6052
vn 0.4044 0.6857 0.6052
vn 0.2785 -0.6857 0.6725
vn 0.2785 0.6857 0.6725
vn 0.1420 -0.6857 0.7139
vn 0.1420 0.6857 0.7139
vn -0.0000 -0.6857 0.7279
vn -0.0000 0.6857 0.7279
vn -0.1420 -0.6857 0.7139
vn -0.1420 0.6857 0.7139
vn -0.2785 -0.6857 0.6725
vn -0.2785 0.6857 0.6725
vn -0.4044 -0.6857 0.6052
vn -0.4044 0.6857 0.6052
vn -0.5147 -0.6857 0.5147
vn -0.5147 0.6857 0.5147
vn -0.6052 -0.6857 0.4044
vn -0.6052 0.6857 0.4044
vn -0.6725 -0.6857 0.2785
vn -0.6725 0.6857 0.2785
vn -0.7139 -0.6857 0.1420
vn -0.7139 0.6857 0.1420
vn -0.7279 -0.6857 -0.0000
vn -0.7279 0.6857 -0.0000
vn -0.7139 -0.6857 -0.1420
vn -0.7139 0.6857 -0.1420
vn -0.6725 -0.6857 -0.2785
vn -0.6725 0.6857 -0.2785
vn -0.6052 -0.6857 -0.4044
vn -0.6052 0.6857 -0.4044
vn -0.5147 -0.6857 -0.5147
vn -0.5147 0.6857 -0.5147
vn -0.4044 -0.6857 -0.6052
vn -0.4044 0.6857 -0.6052
vn -0.2785 -0.6857 -0.6725
vn -0.2785 0.6857 -0.6725
vn -0.1420 -0.6857 -0.7139
vn -0.1420 0.6857 -0.7139
vt 1.000000 0.500000
vt 1.000000 1.000000
vt 0.958333 1.000000
vt 0.958333 0.500000
vt 0.916667 1.000000
vt 0.916667 0.500000
vt 0.875000 1.000000
vt 0.875000 0.500000
vt 0.833333 1.000000
vt 0.833333 0.500000
vt 0.791667 1.000000
vt 0.791667 0.500000
vt 0.750000 1.000000
vt 0.750000 0.500000
vt 0.708333 1.000000
vt 0.708333 0.500000
vt 0.666667 1.000000
vt 0.666667 0.500000
vt 0.625000 1.000000
vt 0.625000 0.500000
vt 0.583333 1.000000
vt 0.583333 0.500000
vt 0.541666 1.000000
vt 0.541666 0.500000
vt 0.500000 1.000000
vt 0.500000 0.500000
vt 0.458333 1.000000
vt 0.458333 0.500000
vt 0.416666 1.000000
vt 0.416666 0.500000
vt 0.375000 1.000000
vt 0.375000 0.500000
vt 0.333333 1.000000
vt 0.333333 0.500000
vt 0.291667 1.000000
vt 0.291667 0.500000
vt 0.250000 1.000000
vt 0.250000 0.500000
vt 0.208333 1.000000
vt 0.208333 0.500000
vt 0.166666 1.000000
vt 0.166666 0.500000
vt 0.125000 1.000000
vt 0.125000 0.500000
vt 0.083333 1.000000
vt 0.083333 0.500000
vt 0.312117 0.481822
vt 0.250000 0.490000
vt 0.187883 0.481822
vt 0.130000 0.457846
vt 0.080294 0.419706
vt 0.042154 0.370000
vt 0.018178 0.312117
vt 0.010000 0.250000
vt 0.018178 0.187883
vt 0.042154 0.130000
vt 0.080294 0.080294
vt 0.130000 0.042154
vt 0.187883 0.018178
vt 0.250000 0.010000
vt 0.312117 0.018178
vt 0.370000 0.042154
vt 0.419706 0.080294
vt 0.457846 0.130000
vt 0.481822 0.187883
vt 0.490000 0.250000
vt 0.481822 0.312117
vt 0.457846 0.370000
vt 0.419706 0.419706
vt 0.370000 0.457846
vt 0.041666 1.000000
vt 0.041666 0.500000
vt -0.000000 1.000000
vt -0.000000 0.500000
vt 0.750000 0.490000
vt 0.812117 0.481822
vt 0.870000 0.457846
vt 0.919706 0.419706
vt 0.957846 0.370000
vt 0.981822 0.312117
vt 0.990000 0.250000
vt 0.981822 0.187883
vt 0.957846 0.130000
vt 0.919706 0.080294
vt 0.870000 0.042154
vt 0.812117 0.018178
vt 0.750000 0.010000
vt 0.687883 0.018178
vt 0.630000 0.042154
vt 0.580294 0.080294
vt 0.542154 0.130000
vt 0.518178 0.187883
vt 0.510000 0.250000
vt 0.518178 0.312117
vt 0.542154 0.370000
vt 0.580294 0.419706
vt 0.630000 0.457846
vt 0.687883 0.481822
vt 0.968750 1.000000
vt 0.968750 0.500000
vt 0.937500 1.000000
vt 0.937500 0.500000
vt 0.906250 1.000000
vt 0.906250 0.500000
vt 0.875000 1.000000
vt 0.875000 0.500000
vt 0.843750 1.000000
vt 0.843750 0.500000
vt 0.812500 1.000000
vt 0.812500 0.500000
vt 0.781250 1.000000
vt 0.781250 0.500000
vt 0.750000 1.000000
vt 0.750000 0.500000
vt 0.718750 1.000000
vt 0.718750 0.500000
vt 0.687500 1.000000
vt 0.687500 0.500000
vt 0.656250 1.000000
vt 0.656250 0.500000
vt 0.625000 1.000000
vt 0.625000 0.500000
vt 0.593750 1.000000
vt 0.593750 0.500000
vt 0.562500 1.000000
vt 0.562500 0.500000
vt 0.531250 1.000000
vt 0.531250 0.500000
vt 0.500000 1.000000
vt 0.500000 0.500000
vt 0.468750 1.000000
vt 0.468750 0.500000
vt 0.437500 1.000000
vt 0.437500 0.500000
vt 0.406250 1.000000
vt 0.406250 0.500000
vt 0.375000 1.000000
vt 0.375000 0.500000
vt 0.343750 1.000000
vt 0.343750 0.500000
vt 0.312500 1.000000
vt 0.312500 0.500000
vt 0.281250 1.000000
vt 0.281250 0.500000
vt 0.250000 1.000000
vt 0.250000 0.500000
vt 0.218750 1.000000
vt 0.218750 0.500000
vt 0.187500 1.000000
vt 0.187500 0.500000
vt 0.156250 1.000000
vt 0.156250 0.500000
vt 0.125000 1.000000
vt 0.125000 0.500000
vt 0.093750 1.000000
vt 0.093750 0.500000
vt 0.062500 1.000000
vt 0.062500 0.500000
vt 0.296822 0.485388
vt 0.203178 0.485388
vt 0.158156 0.471731
vt 0.116663 0.449553
vt 0.050447 0.383337
vt 0.028269 0.341844
vt 0.014612 0.296822
vt 0.014612 0.203178
vt 0.028269 0.158156
vt 0.050447 0.116663
vt 0.116663 0.050447
vt 0.158156 0.028269
vt 0.203178 0.014612
vt 0.296822 0.014612
vt 0.341844 0.028269
vt 0.383337 0.050447
vt 0.449553 0.116663
vt 0.471731 0.158156
vt 0.485388 0.203178
vt 0.485388 0.296822
vt 0.471731 0.341844
vt 0.449553 0.383337
vt 0.383337 0.449553
vt 0.341844 0.471731
vt 0.031250 1.000000
vt 0.031250 0.500000
vt 0.000000 1.000000
vt 0.000000 0.500000
vt 0.796822 0.485388
vt 0.841844 0.471731
vt 0.883337 0.449553
vt 0.949553 0.383337
vt 0.971731 0.341844
vt 0.985388 0.296822
vt 0.985388 0.203178
vt 0.971731 0.158156
vt 0.949553 0.116663
vt 0.883337 0.050447
vt 0.841844 0.028269
vt 0.796822 0.014612
vt 0.703178 0.014612
vt 0.658156 0.028269
vt 0.616663 0.050447
vt 0.550447 0.116663
vt 0.528269 0.158156
vt 0.514612 0.203178
vt 0.514612 0.296822
vt 0.528269 0.341844
vt 0.550447 0.383337
vt 0.616663 0.449553
vt 0.658156 0.471731
vt 0.703178 0.485388
s 1
usemtl tart_mat
f 1/1/1 2/2/2 4/3/4 3/4/3
f 3/4/3 4/3/4 6/5/6 5/6/5
f 5/6/5 6/5/6 8/7/8 7/8/7
f 7/8/7 8/7/8 10/9/10 9/10/9
f 9/10/9 10/9/10 12/11/12 11/12/11
f 11/12/11 12/11/12 14/13/14 13/14/13
f 13/14/13 14/13/14 16/15/16 15/16/15
f 15/16/15 16/15/16 18/17/18 17/18/17
f 17/18/17 18/17/18 20/19/20 19/20/19
f 19/20/19 20/19/20 22/21/22 21/22/21
f 21/22/21 22/21/22 24/23/24 23/24/23
f 23/24/23 24/23/24 26/25/26 25/26/25
f 25/26/25 26/25/26 28/27/28 27/28/27
f 27/28/27 28/27/28 30/29/30 29/30/29
f 29/30/29 30/29/30 32/31/32 31/32/31
f 31/32/31 32/31/32 34/33/34 33/34/33
f 33/34/33 34/33/34 36/35/36 35/36/35
f 35/36/35 36/35/36 38/37/38 37/38/37
f 37/38/37 38/37/38 40/39/40 39/40/39
f 39/40/39 40/39/40 42/41/42 41/42/41
f 41/42/41 42/41/42 44/43/44 43/44/43
f 43/44/43 44/43/44 46/45/46 45/46/45
f 4/47/4 2/48/2 48/49/48 46/50/46 44/51/44 42/52/42 40/53/40 38/54/38 36/55/36 34/56/34 32/57/32 30/58/30 28/59/28 26/60/26 24/61/24 22/62/22 20/63/20 18/64/18 16/65/16 14/66/14 12/67/12 10/68/10 8/69/8 6/70/6
f 45/46/45 46/45/46 48/71/48 47/72/47
f 47/72/47 48/71/48 2/73/2 1/74/1
f 1/75/1 3/76/3 5/77/5 7/78/7 9/79/9 11/80/11 13/81/13 15/82/15 17/83/17 19/84/19 21/85/21 23/86/23 25/87/25 27/88/27 29/89/29 31/90/31 33/91/33 35/92/35 37/93/37 39/94/39 41/95/41 43/96/43 45/97/45 47/98/47
f 49/1/49 50/2/50 52/99/52 51/100/51
f 51/100/51 52/99/52 54/101/54 53/102/53
f 53/102/53 54/101/54 56/103/56 55/104/55
f 55/104/55 56/103/56 58/105/58 57/106/57
f 57/106/57 58/105/58 60/107/60 59/108/59
f 59/108/59 60/107/60 62/109/62 61/110/61
f 61/110/61 62/109/62 64/111/64 63/112/63
f 63/112/63 64/111/64 66/113/66 65/114/65
f 65/114/65 66/113/66 68/115/68 67/116/67
f 67/116/67 68/115/68 70/117/70 69/118/69
f 69/118/69 70/117/70 72/119/72 71/120/71
f 71/120/71 72/119/72 74/121/74 73/122/73
f 73/122/73 74/121/74 76/123/76 75/124/75
f 75/124/75 76/123/76 78/125/78 77/126/77
f 77/126/77 78/125/78 80/127/80 79/128/79
f 79/128/79 80/127/80 82/129/82 81/130/81
f 81/130/81 82/129/82 84/131/84 83/132/83
f 83/132/83 84/131/84 86/133/86 85/134/85
f 85/134/85 86/133/86 88/135/88 87/136/87
f 87/136/87 88/135/88 90/137/90 89/138/89
f 89/138/89 90/137/90 92/139/92 91/140/91
f 91/140/91 92/139/92 94/141/94 93/142/93
f 93/142/93 94/141/94 96/143/96 95/144/95
f 95/144/95 96/143/96 98/145/98 97/146/97
f 97/146/97 98/145/98 100/147/100 99/148/99
f 99/148/99 100/147/100 102/149/102 101/150/101
f 101/150/101 102/149/102 104/151/104 103/152/103
f 103/152/103 104/151/104 106/153/106 105/154/105
f 105/154/105 106/153/106 108/155/108 107/156/107
f 107/156/107 108/155/108 110/157/110 109/158/109
f 52/159/52 50/48/50 112/160/112 110/161/110 108/162/108 106/51/106 104/163/104 102/164/102 100/165/100 98/54/98 96/166/96 94/167/94 92/168/92 90/57/90 88/169/88 86/170/86 84/171/84 82/60/82 80/172/80 78/173/78 76/174/76 74/63/74 72/175/72 70/176/70 68/177/68 66/66/66 64/178/64 62/179/62 60/180/60 58/69/58 56/181/56 54/182/54
f 109/158/109 110/157/110 112/183/112 111/184/111
f 111/184/111 112/183/112 50/185/50 49/186/49
f 49/75/49 51/187/51 53/188/53 55/189/55 57/78/57 59/190/59 61/191/61 63/192/63 65/81/65 67/193/67 69/194/69 71/195/71 73/84/73 75/196/75 77/197/77 79/198/79 81/87/81 83/199/83 85/200/85 87/201/87 89/90/89 91/202/91 93/203/93 95/204/95 97/93/97 99/205/99 101/206/101 103/207/103 105/96/105 107/208/107 109/209/109 111/210/111
